<?xml version="1.0" encoding="UTF-8" standalone="no"?>
<svg
   width="213.3297"
   height="211.48474"
   version="1.0"
   viewBox="0 0 159.99728 158.61362"
   id="svg5"
   xml:space="preserve"
   xmlns="http://www.w3.org/2000/svg"
   xmlns:svg="http://www.w3.org/2000/svg"><defs
     id="defs5" /><path
     style="fill:#000000"
     d="m 53.542975,157.48621 c -2.1092,-0.70889 -4.3486,-1.51222 -4.9763,-1.78518 l -1.1415,-0.49628 1.6073,-1.98791 c 7.3589,-9.1016 11.6084,-20.48532 12.0083,-32.16792 l 0.1376,-4.02 h 11.5973 11.5973 l -3.3031,5.1 c -1.8167,2.805 -7.825,12.12 -13.3518,20.7 -5.5268,8.58 -10.1143,15.6779 -10.1945,15.7731 -0.08,0.0952 -1.8714,-0.40691 -3.9806,-1.11581 z m 26.1319,-1.15728 c 0.7018,-1.089 6.9633,-10.85887 13.9146,-21.71082 L 106.22807,114.8873 v -6.36803 -6.36802 l -23.775995,-0.0612 -23.7759,-0.0612 -0.9446,-2.520003 c -6.557,-17.49359 -21.6011,-30.64503 -39.6437,-34.65623 -4.5635,-1.01454 -6.7099,-1.22378 -12.5538498,-1.22378 H -1.480841e-5 l 0.32666999841,-1.44 C 2.0748452,54.482643 6.0732752,44.876893 10.458875,37.847133 c 11.3413,-18.17888 30.0653,-31.5253198 50.6492,-36.1025998 6.1933,-1.37722002 6.8409,-2.05623902 19.5483,-1.60655102 l 10.8234,0.243496 3.9483,0.90992502 c 15.998995,3.687139 29.803295,10.8952198 41.042695,22.1346598 12.8348,12.83473 20.9048,29.40629 23.1493,47.536464 0.502,4.05437 0.504,15.34168 0,19.38418 -2.0614,16.650893 -8.7987,31.583353 -19.9433,44.202133 -1.3407,1.518 -2.7199,3.02183 -3.0649,3.34184 l -0.6273,0.58183 v -18.16175 -18.16184 h -9.7189 -9.7189 l -0.061,25.2514 -0.061,25.2514 -1.32,0.66447 c -2.6089,1.31325 -6.3648,2.87786 -9.4241,3.92572 l -3.1151,1.06702 h -12.084995 -12.085 z M 130.52287,90.736377 c 3.9402,-1.01662 7.6817,-4.08288 9.5124,-7.79559 1.3188,-2.67455 1.8032,-4.99615 1.6178,-7.7524 -0.4034,-5.9955 -4.1905,-11.07483 -9.8984,-13.275934 -2.173,-0.83797 -6.3608,-1.0635 -8.7328,-0.4703 -5.3701,1.342944 -9.8377,5.811084 -11.181,11.182194 -0.5722,2.28806 -0.3619,6.30043 0.4435,8.46254 1.9467,5.22615 6.4498,9.06453 11.7416,10.00827 1.6568,0.29548 4.5886,0.13358 6.4969,-0.35878 z M 30.508075,126.23729 c -4.7899,-0.74029 -9.2911,-4.00588 -11.3693,-8.24837 -1.6525,-3.3734 -2.0503,-6.2962 -1.3309,-9.77913 1.4568,-7.05276 7.5861,-12.069693 14.7306,-12.057333 6.819,0.0118 12.2458,4.037723 14.5535,10.796463 0.6771,1.98325 0.6394,6.49812 -0.073,8.76 -1.8781,5.96136 -7.4347,10.24963 -13.6574,10.54007 -1.1733,0.0548 -2.4574,0.0495 -2.8534,-0.0117 z"
     id="path5" /></svg>
